<?xml version="1.0" encoding="UTF-8"?>
<svg width="100" height="100" viewBox="0 0 100 100" xmlns="http://www.w3.org/2000/svg">
  <!-- 背景 -->
  <circle cx="50" cy="50" r="50" fill="#10b981" />

  <!-- 头部 -->
  <ellipse cx="50" cy="45" rx="30" ry="35" fill="#059669" />

  <!-- 大眼睛 -->
  <ellipse cx="40" cy="40" rx="12" ry="15" fill="#ecfdf5" />
  <ellipse cx="60" cy="40" rx="12" ry="15" fill="#ecfdf5" />

  <!-- 瞳孔 -->
  <ellipse cx="40" cy="40" rx="6" ry="8" fill="#14b8a6" />
  <ellipse cx="60" cy="40" rx="6" ry="8" fill="#14b8a6" />

  <!-- 小嘴 -->
  <path d="M45,60 Q50,65 55,60" stroke="#a7f3d0" stroke-width="2" fill="none" />

  <!-- 精灵耳朵 -->
  <path d="M20,35 Q15,25 25,15 Q30,25 30,35" fill="#059669" />
  <path d="M80,35 Q85,25 75,15 Q70,25 70,35" fill="#059669" />

  <!-- 能量纹路 -->
  <path d="M30,45 L20,45 M70,45 L80,45" stroke="#a7f3d0" stroke-width="2" />
  <path d="M50,80 L50,90 M40,75 L35,85 M60,75 L65,85" stroke="#a7f3d0" stroke-width="2" />
  <path d="M35,30 L25,20 M65,30 L75,20" stroke="#a7f3d0" stroke-width="2" />

  <!-- 头部装饰 -->
  <circle cx="50" cy="15" r="5" fill="#a7f3d0" />
</svg>
