<?xml version="1.0" encoding="UTF-8"?>
<svg width="100" height="100" viewBox="0 0 100 100" xmlns="http://www.w3.org/2000/svg">
  <!-- 背景 -->
  <circle cx="50" cy="50" r="50" fill="#6b7280" />

  <!-- 机械头部 -->
  <rect x="30" y="25" width="40" height="50" rx="5" fill="#4b5563" />

  <!-- 面部格栅 -->
  <rect x="35" y="35" width="30" height="20" rx="2" fill="#1f2937" />
  <rect x="38" y="40" width="24" height="2" fill="#9ca3af" />
  <rect x="38" y="44" width="24" height="2" fill="#9ca3af" />
  <rect x="38" y="48" width="24" height="2" fill="#9ca3af" />

  <!-- 眼部传感器 -->
  <circle cx="40" cy="30" r="3" fill="#ef4444" />
  <circle cx="60" cy="30" r="3" fill="#ef4444" />

  <!-- 头部连接器 -->
  <rect x="45" y="20" width="10" height="5" fill="#374151" />
  <circle cx="50" cy="15" r="5" fill="#4b5563" />

  <!-- 天线 -->
  <line x1="35" y1="25" x2="25" y2="15" stroke="#9ca3af" stroke-width="2" />
  <circle cx="25" cy="15" r="2" fill="#f87171" />

  <!-- 耳部装置 -->
  <rect x="25" y="40" width="5" height="15" rx="2" fill="#374151" />
  <rect x="70" y="40" width="5" height="15" rx="2" fill="#374151" />

  <!-- 下巴部分 -->
  <path d="M30,75 L40,85 L60,85 L70,75" fill="#4b5563" />

  <!-- 螺丝和铆钉 -->
  <circle cx="30" cy="25" r="2" fill="#9ca3af" />
  <circle cx="70" cy="25" r="2" fill="#9ca3af" />
  <circle cx="30" cy="75" r="2" fill="#9ca3af" />
  <circle cx="70" cy="75" r="2" fill="#9ca3af" />
</svg>
