<?xml version="1.0" encoding="UTF-8"?>
<svg width="100" height="100" viewBox="0 0 100 100" xmlns="http://www.w3.org/2000/svg">
  <!-- 背景 -->
  <circle cx="50" cy="50" r="50" fill="#2563eb" />

  <!-- 头盔 -->
  <path d="M30,35 C30,22 40,15 50,15 C60,15 70,22 70,35 L70,60 C70,70 60,80 50,80 C40,80 30,70 30,60 Z" fill="#1e40af" />

  <!-- 面甲 -->
  <path d="M30,40 L70,40 L70,55 C70,65 60,75 50,75 C40,75 30,65 30,55 Z" fill="#1e293b" />

  <!-- 发光眼部 -->
  <path d="M38,50 L48,50 L48,55 L38,55 Z" fill="#3b82f6" />
  <path d="M52,50 L62,50 L62,55 L52,55 Z" fill="#3b82f6" />

  <!-- 头盔装饰 -->
  <path d="M50,15 L50,5 M40,18 L35,10 M60,18 L65,10" stroke="#93c5fd" stroke-width="2" />

  <!-- 颈部装甲 -->
  <path d="M40,75 L40,85 L60,85 L60,75" fill="#1e40af" />

  <!-- 高光 -->
  <path d="M30,40 L40,30 L60,30 L70,40" fill="none" stroke="#60a5fa" stroke-width="1" />
</svg>
