<?xml version="1.0" encoding="UTF-8"?>
<svg width="100" height="100" viewBox="0 0 100 100" xmlns="http://www.w3.org/2000/svg">
  <!-- 背景 -->
  <circle cx="50" cy="50" r="50" fill="#0ea5e9" />

  <!-- 数据节点头部 -->
  <rect x="25" y="25" width="50" height="50" rx="10" fill="#0369a1" />

  <!-- 数据线路 -->
  <path d="M30,35 L70,35 M30,45 L70,45 M30,55 L70,55 M30,65 L70,65" stroke="#38bdf8" stroke-width="1" stroke-dasharray="2,2" />
  <path d="M35,30 L35,70 M45,30 L45,70 M55,30 L55,70 M65,30 L65,70" stroke="#38bdf8" stroke-width="1" stroke-dasharray="2,2" />

  <!-- 数据节点 -->
  <circle cx="35" cy="35" r="2" fill="#38bdf8" />
  <circle cx="45" cy="35" r="2" fill="#38bdf8" />
  <circle cx="55" cy="35" r="2" fill="#38bdf8" />
  <circle cx="65" cy="35" r="2" fill="#38bdf8" />

  <circle cx="35" cy="45" r="2" fill="#38bdf8" />
  <circle cx="45" cy="45" r="2" fill="#38bdf8" />
  <circle cx="55" cy="45" r="2" fill="#38bdf8" />
  <circle cx="65" cy="45" r="2" fill="#38bdf8" />

  <circle cx="35" cy="55" r="2" fill="#38bdf8" />
  <circle cx="45" cy="55" r="2" fill="#38bdf8" />
  <circle cx="55" cy="55" r="2" fill="#38bdf8" />
  <circle cx="65" cy="55" r="2" fill="#38bdf8" />

  <circle cx="35" cy="65" r="2" fill="#38bdf8" />
  <circle cx="45" cy="65" r="2" fill="#38bdf8" />
  <circle cx="55" cy="65" r="2" fill="#38bdf8" />
  <circle cx="65" cy="65" r="2" fill="#38bdf8" />

  <!-- 中央处理核心 -->
  <circle cx="50" cy="50" r="10" fill="#0c4a6e" />
  <circle cx="50" cy="50" r="6" fill="#0ea5e9" />
  <circle cx="50" cy="50" r="3" fill="#bae6fd" />

  <!-- 数据活动 -->
  <path d="M50,20 L50,25 M50,75 L50,80 M20,50 L25,50 M75,50 L80,50" stroke="#bae6fd" stroke-width="2" />

  <!-- 数据活动点 -->
  <circle cx="50" cy="20" r="3" fill="#bae6fd" />
  <circle cx="50" cy="80" r="3" fill="#bae6fd" />
  <circle cx="20" cy="50" r="3" fill="#bae6fd" />
  <circle cx="80" cy="50" r="3" fill="#bae6fd" />

  <!-- 数据传输动画 -->
  <circle cx="50" cy="35" r="2" fill="white" opacity="0.8" />
  <circle cx="65" cy="50" r="2" fill="white" opacity="0.8" />
  <circle cx="50" cy="65" r="2" fill="white" opacity="0.8" />
  <circle cx="35" cy="50" r="2" fill="white" opacity="0.8" />
</svg>
