<?xml version="1.0" encoding="UTF-8"?>
<svg width="100" height="100" viewBox="0 0 100 100" xmlns="http://www.w3.org/2000/svg">
  <!-- 背景 -->
  <circle cx="50" cy="50" r="50" fill="#0ea5e9" />

  <!-- 头部 -->
  <circle cx="50" cy="45" r="30" fill="#0284c7" />

  <!-- 导游帽子 -->
  <path d="M25,35 L75,35 L75,25 C75,20 65,15 50,15 C35,15 25,20 25,25 Z" fill="#0369a1" />
  <path d="M20,35 L80,35 L80,40 C80,40 75,45 50,45 C25,45 20,40 20,40 Z" fill="#0284c7" />

  <!-- 帽子装饰 -->
  <circle cx="50" cy="25" r="5" fill="#38bdf8" />
  <path d="M45,25 L55,25 M50,20 L50,30" stroke="white" stroke-width="1" />

  <!-- 眼睛 -->
  <ellipse cx="40" cy="50" rx="5" ry="7" fill="white" />
  <ellipse cx="60" cy="50" rx="5" ry="7" fill="white" />
  <circle cx="40" cy="50" r="2" fill="#164e63" />
  <circle cx="60" cy="50" r="2" fill="#164e63" />

  <!-- 嘴巴 -->
  <path d="M40,65 Q50,70 60,65" stroke="white" stroke-width="2" fill="none" />

  <!-- 导游标志 -->
  <rect x="35" y="75" width="30" height="10" rx="5" fill="#38bdf8" />
  <text x="50" y="83" font-family="Arial, sans-serif" font-size="8" fill="white" text-anchor="middle" dominant-baseline="middle">GUIDE</text>

  <!-- 颈部 -->
  <path d="M40,70 L40,75 L60,75 L60,70" fill="#0284c7" />

  <!-- 装饰星星 -->
  <path d="M20,35 L22,40 L18,40 Z" fill="#38bdf8" />
  <path d="M80,35 L78,40 L82,40 Z" fill="#38bdf8" />
</svg>
