<?xml version="1.0" encoding="UTF-8"?>
<svg width="100" height="100" viewBox="0 0 100 100" xmlns="http://www.w3.org/2000/svg">
  <!-- 背景 -->
  <circle cx="50" cy="50" r="50" fill="#64748b" />

  <!-- 中央处理器 -->
  <rect x="30" y="30" width="40" height="40" rx="5" fill="#475569" />

  <!-- CPU内部纹路 -->
  <rect x="35" y="35" width="30" height="30" fill="#334155" />
  <rect x="40" y="40" width="20" height="20" fill="#1e293b" />

  <!-- 连接线 -->
  <path d="M50,10 L50,30 M50,70 L50,90 M10,50 L30,50 M70,50 L90,50" stroke="#94a3b8" stroke-width="3" />

  <!-- 中央核心 -->
  <circle cx="50" cy="50" r="8" fill="#38bdf8" />
  <circle cx="50" cy="50" r="4" fill="#0ea5e9" />

  <!-- 处理器角落 -->
  <circle cx="35" cy="35" r="2" fill="#94a3b8" />
  <circle cx="65" cy="35" r="2" fill="#94a3b8" />
  <circle cx="35" cy="65" r="2" fill="#94a3b8" />
  <circle cx="65" cy="65" r="2" fill="#94a3b8" />

  <!-- 脉冲线 -->
  <path d="M40,50 L45,50 M55,50 L60,50 M50,40 L50,45 M50,55 L50,60" stroke="#38bdf8" stroke-width="2" />

  <!-- 边缘脉冲点 -->
  <circle cx="50" cy="10" r="3" fill="#38bdf8" />
  <circle cx="50" cy="90" r="3" fill="#38bdf8" />
  <circle cx="10" cy="50" r="3" fill="#38bdf8" />
  <circle cx="90" cy="50" r="3" fill="#38bdf8" />
</svg>
