<?xml version="1.0" encoding="UTF-8"?>
<svg width="1440" height="800" viewBox="0 0 1440 800" xmlns="http://www.w3.org/2000/svg">
  <defs>
    <!-- 定义图案 -->
    <pattern id="gridPattern" x="0" y="0" width="40" height="40" patternUnits="userSpaceOnUse">
      <path d="M 40 0 L 0 0 0 40" fill="none" stroke="#06b6d4" stroke-width="0.5" opacity="0.2" />
    </pattern>

    <!-- 定义渐变 -->
    <linearGradient id="bgGradient" x1="0%" y1="0%" x2="100%" y2="100%">
      <stop offset="0%" stop-color="#0891b2" stop-opacity="0.1" />
      <stop offset="100%" stop-color="#06b6d4" stop-opacity="0.05" />
    </linearGradient>

    <!-- 定义小圆点 -->
    <pattern id="dotPattern" x="0" y="0" width="80" height="80" patternUnits="userSpaceOnUse">
      <circle cx="40" cy="40" r="1.5" fill="#06b6d4" opacity="0.4" />
    </pattern>
  </defs>

  <!-- 背景层 -->
  <rect width="1440" height="800" fill="url(#bgGradient)" />

  <!-- 网格层 -->
  <rect width="1440" height="800" fill="url(#gridPattern)" />

  <!-- 点状层 -->
  <rect width="1440" height="800" fill="url(#dotPattern)" />

  <!-- 装饰元素 - 虚线 -->
  <path d="M 0 200 C 400 150, 1000 250, 1440 180" stroke="#0891b2" stroke-width="2" fill="none" stroke-dasharray="5,5" opacity="0.2" />
  <path d="M 0 600 C 500 550, 900 650, 1440 580" stroke="#0891b2" stroke-width="2" fill="none" stroke-dasharray="5,5" opacity="0.2" />

  <!-- 装饰元素 - 大圆 -->
  <circle cx="200" cy="200" r="100" fill="none" stroke="#0e7490" stroke-width="1" opacity="0.1" />
  <circle cx="1200" cy="600" r="150" fill="none" stroke="#0e7490" stroke-width="1" opacity="0.1" />

  <!-- 几何形状 -->
  <path d="M 1100 100 L 1200 200 L 1100 300 L 1000 200 Z" fill="#0891b2" opacity="0.05" />
  <path d="M 300 500 L 400 600 L 300 700 L 200 600 Z" fill="#0891b2" opacity="0.05" />
</svg>
