<?xml version="1.0" encoding="UTF-8"?>
<svg width="400" height="300" viewBox="0 0 400 300" xmlns="http://www.w3.org/2000/svg">
  <!-- 背景 -->
  <rect width="400" height="300" fill="#f8f9fa" />

  <!-- 木质餐桌 -->
  <rect width="400" height="300" fill="#8B4513" />
  <rect width="400" height="300" fill="#A0522D" opacity="0.7" />

  <!-- 木纹 -->
  <g stroke="#6B3E26" stroke-width="1" opacity="0.5">
    <line x1="0" y1="20" x2="400" y2="20" />
    <line x1="0" y1="60" x2="400" y2="60" />
    <line x1="0" y1="100" x2="400" y2="100" />
    <line x1="0" y1="140" x2="400" y2="140" />
    <line x1="0" y1="180" x2="400" y2="180" />
    <line x1="0" y1="220" x2="400" y2="220" />
    <line x1="0" y1="260" x2="400" y2="260" />
  </g>

  <!-- 盘子 -->
  <circle cx="200" cy="150" r="120" fill="#FFFFFF" />
  <circle cx="200" cy="150" r="115" fill="#F5F5F5" />

  <!-- 主菜：牛排 -->
  <ellipse cx="200" cy="150" rx="80" ry="60" fill="#8B0000" />
  <ellipse cx="200" cy="150" rx="75" ry="55" fill="#A52A2A" />

  <!-- 烤痕 -->
  <g stroke="#5E1914" stroke-width="3" stroke-linecap="round">
    <line x1="155" y1="120" x2="175" y2="120" />
    <line x1="225" y1="120" x2="245" y2="120" />
    <line x1="145" y1="150" x2="170" y2="150" />
    <line x1="230" y1="150" x2="255" y2="150" />
    <line x1="155" y1="180" x2="175" y2="180" />
    <line x1="225" y1="180" x2="245" y2="180" />
  </g>

  <!-- 脂肪纹路 -->
  <g stroke="#F5DEB3" stroke-width="2" stroke-linecap="round" opacity="0.7">
    <path d="M160,130 Q170,125 180,130" />
    <path d="M190,130 Q200,125 210,130" />
    <path d="M220,130 Q230,125 240,130" />
    <path d="M170,160 Q180,155 190,160" />
    <path d="M200,160 Q210,155 220,160" />
    <path d="M160,170 Q170,165 180,170" />
    <path d="M220,170 Q230,165 240,170" />
  </g>

  <!-- 配菜：蔬菜 -->
  <!-- 西兰花 -->
  <g transform="translate(130, 100)">
    <path d="M0,0 L0,-15" stroke="#006400" stroke-width="2" />
    <circle cx="0" cy="-20" r="8" fill="#228B22" />
    <circle cx="-5" cy="-22" r="5" fill="#228B22" />
    <circle cx="5" cy="-22" r="5" fill="#228B22" />
    <circle cx="0" cy="-25" r="5" fill="#228B22" />
  </g>

  <g transform="translate(110, 110)">
    <path d="M0,0 L0,-12" stroke="#006400" stroke-width="2" />
    <circle cx="0" cy="-15" r="6" fill="#228B22" />
    <circle cx="-4" cy="-17" r="4" fill="#228B22" />
    <circle cx="4" cy="-17" r="4" fill="#228B22" />
    <circle cx="0" cy="-20" r="4" fill="#228B22" />
  </g>

  <!-- 胡萝卜 -->
  <g transform="translate(280, 110)">
    <path d="M0,0 L5,-10" stroke="#006400" stroke-width="1" />
    <path d="M0,0 L0,-10" stroke="#006400" stroke-width="1" />
    <path d="M0,0 L-5,-10" stroke="#006400" stroke-width="1" />
    <path d="M0,0 L0,15" stroke="#FF8C00" stroke-width="5" stroke-linecap="round" />
    <ellipse cx="0" cy="15" rx="2.5" ry="5" fill="#FF8C00" />
  </g>

  <g transform="translate(260, 120)">
    <path d="M0,0 L3,-8" stroke="#006400" stroke-width="1" />
    <path d="M0,0 L0,-8" stroke="#006400" stroke-width="1" />
    <path d="M0,0 L-3,-8" stroke="#006400" stroke-width="1" />
    <path d="M0,0 L0,12" stroke="#FF8C00" stroke-width="4" stroke-linecap="round" />
    <ellipse cx="0" cy="12" rx="2" ry="4" fill="#FF8C00" />
  </g>

  <!-- 马铃薯泥 -->
  <ellipse cx="200" cy="220" rx="40" ry="15" fill="#F5DEB3" />
  <ellipse cx="200" cy="217" rx="35" ry="12" fill="#FFF8DC" />
  <circle cx="200" cy="217" r="8" fill="#FFFF00" opacity="0.7" /> <!-- 黄油 -->

  <!-- 调味品 -->
  <!-- 酱汁 -->
  <path d="M200,100 Q220,130 200,160 Q180,130 200,100" fill="#8B0000" opacity="0.5" />

  <!-- 香料 -->
  <g fill="#000000" opacity="0.8">
    <circle cx="190" cy="130" r="1" />
    <circle cx="210" cy="130" r="1" />
    <circle cx="180" cy="150" r="1" />
    <circle cx="220" cy="150" r="1" />
    <circle cx="190" cy="170" r="1" />
    <circle cx="210" cy="170" r="1" />
  </g>

  <!-- 盐粒 -->
  <g fill="#FFFFFF" opacity="0.9">
    <circle cx="185" cy="135" r="0.8" />
    <circle cx="215" cy="135" r="0.8" />
    <circle cx="175" cy="155" r="0.8" />
    <circle cx="225" cy="155" r="0.8" />
    <circle cx="185" cy="175" r="0.8" />
    <circle cx="215" cy="175" r="0.8" />
  </g>

  <!-- 刀叉 -->
  <g transform="translate(100, 170)">
    <rect x="-5" y="-40" width="10" height="80" rx="5" fill="#C0C0C0" />
    <path d="M-5,-30 L5,-30 M-5,-20 L5,-20 M-5,-10 L5,-10" stroke="#A9A9A9" stroke-width="1" />
    <rect x="-2" y="-60" width="4" height="20" fill="#C0C0C0" />
    <path d="M0,-60 L-8,-70 M0,-60 L8,-70" stroke="#C0C0C0" stroke-width="4" stroke-linecap="round" />
  </g>

  <g transform="translate(300, 170)">
    <rect x="-2" y="-40" width="4" height="80" fill="#C0C0C0" />
    <path d="M-2,-35 A10,10 0 0,1 2,-35" stroke="#C0C0C0" stroke-width="10" fill="none" />
    <path d="M-2,-40 A10,10 0 0,1 2,-40" stroke="#C0C0C0" stroke-width="10" fill="none" />
    <path d="M-2,-45 A10,10 0 0,1 2,-45" stroke="#C0C0C0" stroke-width="10" fill="none" />
  </g>
</svg>
